<svg xmlns="http://www.w3.org/2000/svg" xmlns:xlink="http://www.w3.org/1999/xlink" width="500" zoomAndPan="magnify" viewBox="0 0 375 374.999991" height="500" preserveAspectRatio="xMidYMid meet" version="1.0"><defs><g/><clipPath id="303c2d05a5"><rect x="0" width="338" y="0" height="347"/></clipPath><clipPath id="d8e647805d"><path d="M 283.929688 40.5 L 375 40.5 L 375 375 L 283.929688 375 Z M 283.929688 40.5 " clip-rule="nonzero"/></clipPath><clipPath id="05ba39c7cd"><path d="M 0.929688 0.5 L 92 0.5 L 92 335 L 0.929688 335 Z M 0.929688 0.5 " clip-rule="nonzero"/></clipPath><clipPath id="7476c58285"><rect x="0" width="92" y="0" height="335"/></clipPath><clipPath id="3ad648fb82"><path d="M 35 222 L 36 222 L 36 222.480469 L 35 222.480469 Z M 35 222 " clip-rule="nonzero"/></clipPath><clipPath id="f335226e12"><rect x="0" width="48" y="0" height="223"/></clipPath></defs><rect x="-37.5" width="450" fill="#ffffff" y="-37.499999" height="449.999989" fill-opacity="1"/><rect x="-37.5" width="450" fill="#fafafa" y="-37.499999" height="449.999989" fill-opacity="1"/><g transform="matrix(1, 0, 0, 1, 37, 28)"><g clip-path="url(#303c2d05a5)"><g fill="#2a2a2a" fill-opacity="1"><g transform="translate(0.500002, 296.457192)"><g><path d="M 26.414062 -205.804688 L 26.414062 0 L 86.34375 0 L 86.34375 -119.066406 C 86.34375 -136.414062 89.496094 -161.648438 116.703125 -161.648438 C 135.625 -161.648438 146.273438 -151.792969 146.273438 -123.011719 L 146.273438 0 L 206.59375 0 L 206.59375 -123.40625 C 206.59375 -148.242188 216.054688 -162.042969 237.742188 -162.042969 C 259.425781 -162.042969 266.128906 -146.273438 266.128906 -118.671875 L 266.128906 0 L 326.449219 0 L 326.449219 -151.003906 C 326.449219 -191.613281 301.21875 -211.324219 263.367188 -211.324219 C 232.617188 -211.324219 213.691406 -196.738281 202.257812 -187.273438 C 189.640625 -202.257812 172.292969 -211.324219 144.695312 -211.324219 C 109.210938 -211.324219 91.863281 -190.824219 86.738281 -184.515625 L 86.738281 -205.804688 Z M 26.414062 -205.804688 "/></g></g></g></g></g><g clip-path="url(#d8e647805d)"><g transform="matrix(1, 0, 0, 1, 283, 40)"><g clip-path="url(#7476c58285)"><g clip-path="url(#05ba39c7cd)"><path fill="#fafafa" d="M 0.929688 0.5 L 141.992188 0.5 L 141.992188 375.753906 L 0.929688 375.753906 Z M 0.929688 0.5 " fill-opacity="1" fill-rule="nonzero"/></g></g></g></g><g transform="matrix(1, 0, 0, 1, 276, 114)"><g clip-path="url(#f335226e12)"><g clip-path="url(#3ad648fb82)"><g fill="#2a2a2a" fill-opacity="1"><g transform="translate(35.955329, 222.263913)"><g/></g></g></g><g fill="#2a2a2a" fill-opacity="1"><g transform="translate(35.955329, 213.783072)"><g/></g></g><g fill="#2a2a2a" fill-opacity="1"><g transform="translate(35.955329, 213.783072)"><g><path d="M -17.671875 -2.226562 L 0 -2.226562 L 0 -6.46875 L -7.421875 -6.46875 C -9.402344 -6.46875 -11.875 -6.503906 -13.359375 -8.234375 C -14.101562 -9.121094 -14.210938 -10.039062 -14.210938 -10.460938 C -14.210938 -12.761719 -12.230469 -13.359375 -10.851562 -13.359375 L 0 -13.359375 L 0 -17.566406 L -8.304688 -17.566406 C -9.71875 -17.566406 -11.167969 -17.601562 -12.441406 -18.414062 C -13.996094 -19.371094 -14.246094 -20.890625 -14.246094 -21.5625 C -14.246094 -24.390625 -11.488281 -24.53125 -10.816406 -24.53125 L 0 -24.53125 L 0 -28.738281 L -12.089844 -28.738281 C -16.332031 -28.738281 -18.203125 -26.226562 -18.203125 -22.65625 C -18.203125 -19.898438 -16.964844 -18.097656 -15.515625 -16.964844 C -17.285156 -15.976562 -18.203125 -14.066406 -18.203125 -12.054688 C -18.203125 -9.332031 -16.683594 -7.246094 -15.695312 -6.503906 L -17.671875 -6.503906 Z M -17.671875 -2.226562 "/></g></g></g><g fill="#2a2a2a" fill-opacity="1"><g transform="translate(35.955329, 184.561938)"><g><path d="M -7.988281 -18.769531 C -12.796875 -18.769531 -18.203125 -16.824219 -18.203125 -10.074219 C -18.203125 -5.480469 -15.269531 -1.203125 -8.941406 -1.203125 C -3.074219 -1.203125 0.53125 -5.019531 0.53125 -10.285156 C 0.53125 -14.917969 -2.050781 -17.496094 -3.957031 -18.910156 L -6.042969 -15.304688 C -5.445312 -14.953125 -3.605469 -13.679688 -3.605469 -10.675781 C -3.605469 -6.574219 -7.105469 -5.761719 -7.988281 -5.691406 Z M -11.097656 -5.832031 C -11.804688 -5.972656 -14.808594 -6.644531 -14.808594 -10.144531 C -14.808594 -13.46875 -11.984375 -14.03125 -11.097656 -14.101562 Z M -11.097656 -5.832031 "/></g></g></g><g fill="#2a2a2a" fill-opacity="1"><g transform="translate(35.955329, 166.400626)"><g><path d="M -14.917969 -16.753906 C -17.992188 -14.101562 -18.203125 -10.535156 -18.203125 -9.15625 C -18.203125 -4.914062 -15.941406 -1.554688 -12.441406 -1.554688 C -8.269531 -1.554688 -7.386719 -6.328125 -7.140625 -7.707031 L -6.75 -9.898438 C -6.46875 -11.523438 -6.078125 -12.511719 -5.054688 -12.511719 C -4.277344 -12.511719 -2.96875 -11.59375 -2.96875 -9.046875 C -2.96875 -6.398438 -4.101562 -4.808594 -5.230469 -3.957031 L -2.652344 -0.777344 C -1.625 -1.765625 0.53125 -4.382812 0.53125 -9.261719 C 0.53125 -14.136719 -2.261719 -17.214844 -5.515625 -17.214844 C -8.378906 -17.214844 -9.96875 -15.164062 -10.460938 -12.476562 L -10.992188 -9.613281 C -11.453125 -7.070312 -11.804688 -6.007812 -12.972656 -6.007812 C -14.5625 -6.007812 -14.808594 -8.128906 -14.808594 -8.941406 C -14.808594 -10.992188 -13.996094 -12.796875 -12.125 -13.75 Z M -14.917969 -16.753906 "/></g></g></g><g fill="#2a2a2a" fill-opacity="1"><g transform="translate(35.955329, 149.688047)"><g><path d="M 0 -18.378906 L -11.945312 -18.378906 C -16.011719 -18.378906 -18.203125 -15.90625 -18.203125 -12.054688 C -18.203125 -9.4375 -16.964844 -7.527344 -15.871094 -6.46875 L -24.953125 -6.46875 L -24.953125 -2.226562 L 0 -2.226562 L 0 -6.46875 L -9.789062 -6.46875 C -12.441406 -6.46875 -14.175781 -8.589844 -14.175781 -10.886719 C -14.175781 -12.9375 -12.9375 -14.210938 -10.355469 -14.210938 L 0 -14.210938 Z M 0 -18.378906 "/></g></g></g><g fill="#2a2a2a" fill-opacity="1"><g transform="translate(35.955329, 130.7847)"><g><path d="M 0 -17.671875 C -1.132812 -16.964844 -1.519531 -16.894531 -2.863281 -16.894531 L -13.183594 -16.894531 C -16.292969 -16.894531 -18.203125 -14.667969 -18.203125 -9.472656 C -18.203125 -2.050781 -13.679688 -1.800781 -12.511719 -1.730469 L -12.265625 -6.042969 C -13.183594 -6.042969 -14.917969 -6.398438 -14.917969 -9.613281 C -14.917969 -12.265625 -13.609375 -12.652344 -12.265625 -12.652344 C -11.875 -11.523438 -11.453125 -9.863281 -10.957031 -7.210938 C -10.355469 -3.851562 -8.835938 -0.917969 -4.984375 -0.917969 C -2.015625 -0.917969 0.425781 -3.324219 0.425781 -7.351562 C 0.425781 -9.507812 -0.460938 -11.382812 -1.378906 -12.546875 L 0 -12.652344 Z M -6.433594 -12.652344 C -4.207031 -12.652344 -3.214844 -10.25 -3.214844 -8.304688 C -3.214844 -6.1875 -4.207031 -5.40625 -5.371094 -5.40625 C -7.140625 -5.40625 -7.527344 -7.351562 -7.8125 -9.296875 C -8.058594 -10.921875 -8.449219 -11.945312 -8.800781 -12.652344 Z M -6.433594 -12.652344 "/></g></g></g><g fill="#2a2a2a" fill-opacity="1"><g transform="translate(35.955329, 113.330085)"><g><path d="M -7.988281 -18.769531 C -12.796875 -18.769531 -18.203125 -16.824219 -18.203125 -10.074219 C -18.203125 -5.480469 -15.269531 -1.203125 -8.941406 -1.203125 C -3.074219 -1.203125 0.53125 -5.019531 0.53125 -10.285156 C 0.53125 -14.917969 -2.050781 -17.496094 -3.957031 -18.910156 L -6.042969 -15.304688 C -5.445312 -14.953125 -3.605469 -13.679688 -3.605469 -10.675781 C -3.605469 -6.574219 -7.105469 -5.761719 -7.988281 -5.691406 Z M -11.097656 -5.832031 C -11.804688 -5.972656 -14.808594 -6.644531 -14.808594 -10.144531 C -14.808594 -13.46875 -11.984375 -14.03125 -11.097656 -14.101562 Z M -11.097656 -5.832031 "/></g></g></g><g fill="#2a2a2a" fill-opacity="1"><g transform="translate(35.955329, 95.160801)"><g/></g></g><g fill="#cc5500" fill-opacity="1"><g transform="translate(35.955329, 95.160801)"><g><path d="M -4.101562 -1.203125 C 0.210938 -3.003906 0.425781 -6.574219 0.425781 -7.988281 C 0.425781 -12.726562 -2.6875 -14.28125 -4.628906 -14.28125 C -7.246094 -14.28125 -8.941406 -12.582031 -9.542969 -9.613281 L -9.898438 -7.847656 C -10.179688 -6.398438 -10.640625 -4.3125 -12.617188 -4.3125 C -13.644531 -4.3125 -15.445312 -4.773438 -15.445312 -8.199219 C -15.445312 -9.898438 -14.882812 -11.910156 -12.9375 -12.300781 L -13.46875 -14.28125 C -14.03125 -14.136719 -15.269531 -13.75 -16.1875 -12.441406 C -17.285156 -10.886719 -17.285156 -8.800781 -17.285156 -8.304688 C -17.285156 -6.820312 -16.929688 -4.878906 -15.871094 -3.710938 C -14.667969 -2.367188 -13.042969 -2.261719 -12.441406 -2.261719 C -9.96875 -2.261719 -8.800781 -4.03125 -8.234375 -6.644531 L -7.8125 -8.625 C -7.210938 -11.417969 -6.222656 -12.265625 -4.773438 -12.265625 C -3.289062 -12.265625 -1.484375 -11.203125 -1.484375 -7.953125 C -1.484375 -4.808594 -3.640625 -3.535156 -4.808594 -3.25 Z M -4.101562 -1.203125 "/></g></g></g><g fill="#cc5500" fill-opacity="1"><g transform="translate(35.955329, 80.674317)"><g><path d="M -15.09375 -6.078125 L -15.09375 -9.789062 L -16.859375 -9.789062 L -16.859375 -6.078125 L -24.035156 -6.078125 L -24.035156 -4.066406 L -16.859375 -4.066406 L -16.859375 -0.53125 L -15.09375 -0.53125 L -15.09375 -4.066406 L -3.957031 -4.066406 C -3.039062 -4.066406 -1.800781 -4.101562 -1.203125 -4.3125 C 0.28125 -4.84375 0.316406 -6.398438 0.316406 -7 C 0.316406 -8.449219 -0.105469 -9.332031 -0.460938 -9.789062 L -2.582031 -9.789062 C -2.121094 -9.15625 -1.519531 -8.304688 -1.519531 -7.457031 C -1.519531 -6.222656 -2.617188 -6.078125 -3.570312 -6.078125 Z M -15.09375 -6.078125 "/></g></g></g><g fill="#cc5500" fill-opacity="1"><g transform="translate(35.955329, 72.053429)"><g><path d="M 0 -15.765625 L -16.859375 -15.765625 L -16.859375 -13.679688 L -8.339844 -13.679688 C -6.609375 -13.679688 -4.84375 -13.574219 -3.429688 -12.546875 C -1.589844 -11.203125 -1.554688 -9.402344 -1.554688 -8.554688 C -1.554688 -6.078125 -3.003906 -5.335938 -4.03125 -5.054688 C -4.984375 -4.808594 -6.078125 -4.773438 -8.128906 -4.773438 L -16.859375 -4.773438 L -16.859375 -2.652344 L -8.589844 -2.652344 C -5.9375 -2.652344 -4.347656 -2.757812 -3.179688 -3.109375 C -0.847656 -3.851562 0.390625 -5.972656 0.390625 -8.304688 C 0.390625 -11.167969 -0.953125 -12.761719 -3.039062 -13.679688 L 0 -13.679688 Z M 0 -15.765625 "/></g></g></g><g fill="#cc5500" fill-opacity="1"><g transform="translate(35.955329, 55.34085)"><g><path d="M 0 -15.765625 L -24.953125 -15.765625 L -24.953125 -13.714844 L -14.175781 -13.714844 C -16.082031 -13.078125 -17.214844 -11.027344 -17.214844 -8.835938 C -17.214844 -4.382812 -13.46875 -1.554688 -8.449219 -1.554688 C -3.429688 -1.554688 0.390625 -4.3125 0.390625 -8.519531 C 0.390625 -10.78125 -0.8125 -12.9375 -3.039062 -13.714844 L 0 -13.714844 Z M -8.449219 -3.816406 C -12.617188 -3.816406 -15.304688 -5.761719 -15.304688 -8.941406 C -15.304688 -10.605469 -14.632812 -13.75 -9.046875 -13.75 L -8.128906 -13.75 C -3.5 -13.75 -1.589844 -11.558594 -1.589844 -8.835938 C -1.589844 -6.222656 -3.464844 -3.816406 -8.449219 -3.816406 Z M -8.449219 -3.816406 "/></g></g></g><g fill="#cc5500" fill-opacity="1"><g transform="translate(35.955329, 38.628271)"><g><path d="M -20.820312 -4.699219 L -24.035156 -4.699219 L -24.035156 -2.652344 L -20.820312 -2.652344 Z M 0 -4.699219 L -16.859375 -4.699219 L -16.859375 -2.652344 L 0 -2.652344 Z M 0 -4.699219 "/></g></g></g><g fill="#cc5500" fill-opacity="1"><g transform="translate(35.955329, 32.975513)"><g><path d="M -8.519531 -16.859375 C -12.796875 -16.789062 -17.285156 -14.527344 -17.285156 -9.261719 C -17.285156 -4.417969 -13.46875 -1.554688 -8.234375 -1.554688 C -2.792969 -1.554688 0.425781 -4.773438 0.425781 -9.121094 C 0.425781 -12.796875 -2.226562 -16.859375 -8.519531 -16.859375 Z M -8.519531 -14.632812 C -3.109375 -14.632812 -1.414062 -11.769531 -1.414062 -9.15625 C -1.414062 -6.503906 -3.039062 -3.78125 -8.234375 -3.78125 C -13.289062 -3.78125 -15.515625 -6.1875 -15.515625 -9.226562 C -15.515625 -11.875 -13.820312 -14.632812 -8.519531 -14.632812 Z M -8.519531 -14.632812 "/></g></g></g><g fill="#cc5500" fill-opacity="1"><g transform="translate(35.955329, 16.262934)"><g><path d="M -4.101562 -1.203125 C 0.210938 -3.003906 0.425781 -6.574219 0.425781 -7.988281 C 0.425781 -12.726562 -2.6875 -14.28125 -4.628906 -14.28125 C -7.246094 -14.28125 -8.941406 -12.582031 -9.542969 -9.613281 L -9.898438 -7.847656 C -10.179688 -6.398438 -10.640625 -4.3125 -12.617188 -4.3125 C -13.644531 -4.3125 -15.445312 -4.773438 -15.445312 -8.199219 C -15.445312 -9.898438 -14.882812 -11.910156 -12.9375 -12.300781 L -13.46875 -14.28125 C -14.03125 -14.136719 -15.269531 -13.75 -16.1875 -12.441406 C -17.285156 -10.886719 -17.285156 -8.800781 -17.285156 -8.304688 C -17.285156 -6.820312 -16.929688 -4.878906 -15.871094 -3.710938 C -14.667969 -2.367188 -13.042969 -2.261719 -12.441406 -2.261719 C -9.96875 -2.261719 -8.800781 -4.03125 -8.234375 -6.644531 L -7.8125 -8.625 C -7.210938 -11.417969 -6.222656 -12.265625 -4.773438 -12.265625 C -3.289062 -12.265625 -1.484375 -11.203125 -1.484375 -7.953125 C -1.484375 -4.808594 -3.640625 -3.535156 -4.808594 -3.25 Z M -4.101562 -1.203125 "/></g></g></g><g fill="#cc5500" fill-opacity="1"><g transform="translate(35.955329, 1.774201)"><g/></g></g></g></g></svg>