<svg xmlns="http://www.w3.org/2000/svg" xmlns:xlink="http://www.w3.org/1999/xlink" width="500" zoomAndPan="magnify" viewBox="0 0 375 374.999991" height="500" preserveAspectRatio="xMidYMid meet" version="1.0"><defs><g/><clipPath id="3d09c1bef1"><rect x="0" width="254" y="0" height="335"/></clipPath><clipPath id="7bf66ac434"><path d="M 249.484375 92.34375 L 349.808594 92.34375 L 349.808594 269.996094 L 249.484375 269.996094 Z M 249.484375 92.34375 " clip-rule="nonzero"/></clipPath><clipPath id="a3da5eb6a3"><path d="M 0.484375 0.34375 L 100.808594 0.34375 L 100.808594 177.996094 L 0.484375 177.996094 Z M 0.484375 0.34375 " clip-rule="nonzero"/></clipPath><clipPath id="a7361aae33"><rect x="0" width="101" y="0" height="178"/></clipPath><clipPath id="b0f94c5ab2"><path d="M 23 142 L 24 142 L 24 142.921875 L 23 142.921875 Z M 23 142 " clip-rule="nonzero"/></clipPath><clipPath id="841e597c85"><rect x="0" width="31" y="0" height="143"/></clipPath></defs><rect x="-37.5" width="450" fill="#ffffff" y="-37.499999" height="449.999989" fill-opacity="1"/><rect x="-37.5" width="450" fill="#fafafa" y="-37.499999" height="449.999989" fill-opacity="1"/><g transform="matrix(1, 0, 0, 1, 70, 13)"><g clip-path="url(#3d09c1bef1)"><g fill="#2a2a2a" fill-opacity="1"><g transform="translate(0.799553, 251.194773)"><g><path d="M 184.65625 -134.5625 C 201.195312 -134.5625 214.359375 -129.550781 224.140625 -119.53125 C 233.921875 -109.507812 238.8125 -95.59375 238.8125 -77.78125 L 238.8125 0 L 198.265625 0 L 198.265625 -72.296875 C 198.265625 -80.878906 195.992188 -87.515625 191.453125 -92.203125 C 186.921875 -96.898438 180.679688 -99.25 172.734375 -99.25 C 164.773438 -99.25 158.53125 -96.898438 154 -92.203125 C 149.46875 -87.515625 147.203125 -80.878906 147.203125 -72.296875 L 147.203125 0 L 106.640625 0 L 106.640625 -72.296875 C 106.640625 -80.878906 104.375 -87.515625 99.84375 -92.203125 C 95.3125 -96.898438 89.066406 -99.25 81.109375 -99.25 C 73.160156 -99.25 66.921875 -96.898438 62.390625 -92.203125 C 57.859375 -87.515625 55.59375 -80.878906 55.59375 -72.296875 L 55.59375 0 L 14.796875 0 L 14.796875 -133.125 L 55.59375 -133.125 L 55.59375 -116.421875 C 59.726562 -121.992188 65.132812 -126.410156 71.8125 -129.671875 C 78.488281 -132.929688 86.046875 -134.5625 94.484375 -134.5625 C 104.492188 -134.5625 113.4375 -132.410156 121.3125 -128.109375 C 129.1875 -123.816406 135.351562 -117.695312 139.8125 -109.75 C 144.414062 -117.0625 150.691406 -123.023438 158.640625 -127.640625 C 166.597656 -132.253906 175.269531 -134.5625 184.65625 -134.5625 Z M 184.65625 -134.5625 "/></g></g></g></g></g><g clip-path="url(#7bf66ac434)"><g transform="matrix(1, 0, 0, 1, 249, 92)"><g clip-path="url(#a7361aae33)"><g clip-path="url(#a3da5eb6a3)"><path fill="#ffffff" d="M 0.484375 0.34375 L 100.808594 0.34375 L 100.808594 177.867188 L 0.484375 177.867188 Z M 0.484375 0.34375 " fill-opacity="1" fill-rule="nonzero"/></g></g></g></g><g transform="matrix(1, 0, 0, 1, 246, 129)"><g clip-path="url(#841e597c85)"><g clip-path="url(#b0f94c5ab2)"><g fill="#2a2a2a" fill-opacity="1"><g transform="translate(23.657154, 142.843019)"><g/></g></g></g><g fill="#2a2a2a" fill-opacity="1"><g transform="translate(23.657154, 137.407393)"><g/></g></g><g fill="#2a2a2a" fill-opacity="1"><g transform="translate(23.657154, 137.407393)"><g><path d="M -11.304688 -1.425781 L 0 -1.425781 L 0 -4.136719 L -4.746094 -4.136719 C -6.015625 -4.136719 -7.597656 -4.160156 -8.546875 -5.269531 C -9.019531 -5.832031 -9.089844 -6.421875 -9.089844 -6.691406 C -9.089844 -8.160156 -7.824219 -8.546875 -6.941406 -8.546875 L 0 -8.546875 L 0 -11.238281 L -5.3125 -11.238281 C -6.21875 -11.238281 -7.144531 -11.257812 -7.957031 -11.777344 C -8.953125 -12.390625 -9.109375 -13.363281 -9.109375 -13.792969 C -9.109375 -15.601562 -7.347656 -15.691406 -6.917969 -15.691406 L 0 -15.691406 L 0 -18.378906 L -7.730469 -18.378906 C -10.445312 -18.378906 -11.644531 -16.777344 -11.644531 -14.492188 C -11.644531 -12.730469 -10.851562 -11.574219 -9.925781 -10.851562 C -11.054688 -10.21875 -11.644531 -9 -11.644531 -7.710938 C -11.644531 -5.96875 -10.671875 -4.632812 -10.039062 -4.160156 L -11.304688 -4.160156 Z M -11.304688 -1.425781 "/></g></g></g><g fill="#2a2a2a" fill-opacity="1"><g transform="translate(23.657154, 118.711628)"><g><path d="M -5.109375 -12.003906 C -8.183594 -12.003906 -11.644531 -10.761719 -11.644531 -6.445312 C -11.644531 -3.503906 -9.765625 -0.769531 -5.71875 -0.769531 C -1.96875 -0.769531 0.339844 -3.210938 0.339844 -6.578125 C 0.339844 -9.539062 -1.3125 -11.191406 -2.53125 -12.09375 L -3.867188 -9.789062 C -3.480469 -9.5625 -2.304688 -8.75 -2.304688 -6.828125 C -2.304688 -4.207031 -4.542969 -3.683594 -5.109375 -3.640625 Z M -7.097656 -3.730469 C -7.550781 -3.820312 -9.472656 -4.25 -9.472656 -6.488281 C -9.472656 -8.613281 -7.664062 -8.976562 -7.097656 -9.019531 Z M -7.097656 -3.730469 "/></g></g></g><g fill="#2a2a2a" fill-opacity="1"><g transform="translate(23.657154, 107.091835)"><g><path d="M -9.539062 -10.714844 C -11.507812 -9.019531 -11.644531 -6.738281 -11.644531 -5.855469 C -11.644531 -3.140625 -10.195312 -0.996094 -7.957031 -0.996094 C -5.289062 -0.996094 -4.726562 -4.046875 -4.566406 -4.929688 L -4.316406 -6.332031 C -4.136719 -7.371094 -3.886719 -8.003906 -3.234375 -8.003906 C -2.734375 -8.003906 -1.898438 -7.414062 -1.898438 -5.789062 C -1.898438 -4.09375 -2.621094 -3.074219 -3.347656 -2.53125 L -1.695312 -0.496094 C -1.039062 -1.128906 0.339844 -2.804688 0.339844 -5.921875 C 0.339844 -9.042969 -1.445312 -11.011719 -3.527344 -11.011719 C -5.359375 -11.011719 -6.375 -9.699219 -6.691406 -7.980469 L -7.03125 -6.148438 C -7.324219 -4.523438 -7.550781 -3.84375 -8.296875 -3.84375 C -9.316406 -3.84375 -9.472656 -5.199219 -9.472656 -5.71875 C -9.472656 -7.03125 -8.953125 -8.183594 -7.753906 -8.792969 Z M -9.539062 -10.714844 "/></g></g></g><g fill="#2a2a2a" fill-opacity="1"><g transform="translate(23.657154, 96.398935)"><g><path d="M 0 -11.757812 L -7.640625 -11.757812 C -10.242188 -11.757812 -11.644531 -10.171875 -11.644531 -7.710938 C -11.644531 -6.035156 -10.851562 -4.816406 -10.152344 -4.136719 L -15.960938 -4.136719 L -15.960938 -1.425781 L 0 -1.425781 L 0 -4.136719 L -6.261719 -4.136719 C -7.957031 -4.136719 -9.066406 -5.492188 -9.066406 -6.964844 C -9.066406 -8.273438 -8.273438 -9.089844 -6.625 -9.089844 L 0 -9.089844 Z M 0 -11.757812 "/></g></g></g><g fill="#2a2a2a" fill-opacity="1"><g transform="translate(23.657154, 84.304396)"><g><path d="M 0 -11.304688 C -0.722656 -10.851562 -0.972656 -10.808594 -1.832031 -10.808594 L -8.433594 -10.808594 C -10.421875 -10.808594 -11.644531 -9.382812 -11.644531 -6.058594 C -11.644531 -1.3125 -8.75 -1.152344 -8.003906 -1.109375 L -7.84375 -3.867188 C -8.433594 -3.867188 -9.539062 -4.09375 -9.539062 -6.148438 C -9.539062 -7.84375 -8.703125 -8.09375 -7.84375 -8.09375 C -7.597656 -7.371094 -7.324219 -6.308594 -7.007812 -4.613281 C -6.625 -2.464844 -5.652344 -0.585938 -3.1875 -0.585938 C -1.289062 -0.585938 0.269531 -2.125 0.269531 -4.703125 C 0.269531 -6.082031 -0.292969 -7.28125 -0.882812 -8.027344 L 0 -8.09375 Z M -4.113281 -8.09375 C -2.691406 -8.09375 -2.058594 -6.554688 -2.058594 -5.3125 C -2.058594 -3.957031 -2.691406 -3.460938 -3.4375 -3.460938 C -4.566406 -3.460938 -4.816406 -4.703125 -4.996094 -5.945312 C -5.15625 -6.984375 -5.402344 -7.640625 -5.628906 -8.09375 Z M -4.113281 -8.09375 "/></g></g></g><g fill="#2a2a2a" fill-opacity="1"><g transform="translate(23.657154, 73.136751)"><g><path d="M -5.109375 -12.003906 C -8.183594 -12.003906 -11.644531 -10.761719 -11.644531 -6.445312 C -11.644531 -3.503906 -9.765625 -0.769531 -5.71875 -0.769531 C -1.96875 -0.769531 0.339844 -3.210938 0.339844 -6.578125 C 0.339844 -9.539062 -1.3125 -11.191406 -2.53125 -12.09375 L -3.867188 -9.789062 C -3.480469 -9.5625 -2.304688 -8.75 -2.304688 -6.828125 C -2.304688 -4.207031 -4.542969 -3.683594 -5.109375 -3.640625 Z M -7.097656 -3.730469 C -7.550781 -3.820312 -9.472656 -4.25 -9.472656 -6.488281 C -9.472656 -8.613281 -7.664062 -8.976562 -7.097656 -9.019531 Z M -7.097656 -3.730469 "/></g></g></g><g fill="#2a2a2a" fill-opacity="1"><g transform="translate(23.657154, 61.50995)"><g/></g></g><g fill="#cc5500" fill-opacity="1"><g transform="translate(23.657154, 61.50995)"><g><path d="M -2.621094 -0.769531 C 0.136719 -1.921875 0.269531 -4.207031 0.269531 -5.109375 C 0.269531 -8.140625 -1.71875 -9.132812 -2.960938 -9.132812 C -4.632812 -9.132812 -5.71875 -8.046875 -6.105469 -6.148438 L -6.332031 -5.019531 C -6.511719 -4.09375 -6.804688 -2.757812 -8.070312 -2.757812 C -8.726562 -2.757812 -9.878906 -3.050781 -9.878906 -5.246094 C -9.878906 -6.332031 -9.519531 -7.617188 -8.273438 -7.867188 L -8.613281 -9.132812 C -8.976562 -9.042969 -9.765625 -8.792969 -10.355469 -7.957031 C -11.054688 -6.964844 -11.054688 -5.628906 -11.054688 -5.3125 C -11.054688 -4.363281 -10.828125 -3.121094 -10.152344 -2.375 C -9.382812 -1.515625 -8.34375 -1.445312 -7.957031 -1.445312 C -6.375 -1.445312 -5.628906 -2.578125 -5.269531 -4.25 L -4.996094 -5.515625 C -4.613281 -7.300781 -3.980469 -7.84375 -3.050781 -7.84375 C -2.101562 -7.84375 -0.949219 -7.167969 -0.949219 -5.085938 C -0.949219 -3.074219 -2.328125 -2.261719 -3.074219 -2.078125 Z M -2.621094 -0.769531 "/></g></g></g><g fill="#cc5500" fill-opacity="1"><g transform="translate(23.657154, 52.241286)"><g><path d="M -9.652344 -3.886719 L -9.652344 -6.261719 L -10.785156 -6.261719 L -10.785156 -3.886719 L -15.375 -3.886719 L -15.375 -2.601562 L -10.785156 -2.601562 L -10.785156 -0.339844 L -9.652344 -0.339844 L -9.652344 -2.601562 L -2.53125 -2.601562 C -1.945312 -2.601562 -1.152344 -2.621094 -0.769531 -2.757812 C 0.179688 -3.097656 0.203125 -4.09375 0.203125 -4.476562 C 0.203125 -5.402344 -0.0664062 -5.96875 -0.292969 -6.261719 L -1.652344 -6.261719 C -1.355469 -5.855469 -0.972656 -5.3125 -0.972656 -4.769531 C -0.972656 -3.980469 -1.671875 -3.886719 -2.285156 -3.886719 Z M -9.652344 -3.886719 "/></g></g></g><g fill="#cc5500" fill-opacity="1"><g transform="translate(23.657154, 46.725377)"><g><path d="M 0 -10.082031 L -10.785156 -10.082031 L -10.785156 -8.75 L -5.335938 -8.75 C -4.226562 -8.75 -3.097656 -8.679688 -2.191406 -8.027344 C -1.015625 -7.167969 -0.996094 -6.015625 -0.996094 -5.472656 C -0.996094 -3.886719 -1.921875 -3.414062 -2.578125 -3.234375 C -3.1875 -3.074219 -3.886719 -3.050781 -5.199219 -3.050781 L -10.785156 -3.050781 L -10.785156 -1.695312 L -5.492188 -1.695312 C -3.796875 -1.695312 -2.78125 -1.761719 -2.035156 -1.988281 C -0.542969 -2.464844 0.25 -3.820312 0.25 -5.3125 C 0.25 -7.144531 -0.609375 -8.160156 -1.945312 -8.75 L 0 -8.75 Z M 0 -10.082031 "/></g></g></g><g fill="#cc5500" fill-opacity="1"><g transform="translate(23.657154, 36.032477)"><g><path d="M 0 -10.082031 L -15.960938 -10.082031 L -15.960938 -8.773438 L -9.066406 -8.773438 C -10.285156 -8.363281 -11.011719 -7.054688 -11.011719 -5.652344 C -11.011719 -2.804688 -8.613281 -0.996094 -5.402344 -0.996094 C -2.191406 -0.996094 0.25 -2.757812 0.25 -5.449219 C 0.25 -6.894531 -0.519531 -8.273438 -1.945312 -8.773438 L 0 -8.773438 Z M -5.402344 -2.441406 C -8.070312 -2.441406 -9.789062 -3.683594 -9.789062 -5.71875 C -9.789062 -6.78125 -9.359375 -8.792969 -5.789062 -8.792969 L -5.199219 -8.792969 C -2.238281 -8.792969 -1.015625 -7.394531 -1.015625 -5.652344 C -1.015625 -3.980469 -2.214844 -2.441406 -5.402344 -2.441406 Z M -5.402344 -2.441406 "/></g></g></g><g fill="#cc5500" fill-opacity="1"><g transform="translate(23.657154, 25.339577)"><g><path d="M -13.316406 -3.007812 L -15.375 -3.007812 L -15.375 -1.695312 L -13.316406 -1.695312 Z M 0 -3.007812 L -10.785156 -3.007812 L -10.785156 -1.695312 L 0 -1.695312 Z M 0 -3.007812 "/></g></g></g><g fill="#cc5500" fill-opacity="1"><g transform="translate(23.657154, 21.72265)"><g><path d="M -5.449219 -10.785156 C -8.183594 -10.738281 -11.054688 -9.292969 -11.054688 -5.921875 C -11.054688 -2.824219 -8.613281 -0.996094 -5.269531 -0.996094 C -1.785156 -0.996094 0.269531 -3.050781 0.269531 -5.832031 C 0.269531 -8.183594 -1.425781 -10.785156 -5.449219 -10.785156 Z M -5.449219 -9.359375 C -1.988281 -9.359375 -0.90625 -7.527344 -0.90625 -5.855469 C -0.90625 -4.160156 -1.945312 -2.417969 -5.269531 -2.417969 C -8.5 -2.417969 -9.925781 -3.957031 -9.925781 -5.902344 C -9.925781 -7.597656 -8.839844 -9.359375 -5.449219 -9.359375 Z M -5.449219 -9.359375 "/></g></g></g><g fill="#cc5500" fill-opacity="1"><g transform="translate(23.657154, 11.02975)"><g><path d="M -2.621094 -0.769531 C 0.136719 -1.921875 0.269531 -4.207031 0.269531 -5.109375 C 0.269531 -8.140625 -1.71875 -9.132812 -2.960938 -9.132812 C -4.632812 -9.132812 -5.71875 -8.046875 -6.105469 -6.148438 L -6.332031 -5.019531 C -6.511719 -4.09375 -6.804688 -2.757812 -8.070312 -2.757812 C -8.726562 -2.757812 -9.878906 -3.050781 -9.878906 -5.246094 C -9.878906 -6.332031 -9.519531 -7.617188 -8.273438 -7.867188 L -8.613281 -9.132812 C -8.976562 -9.042969 -9.765625 -8.792969 -10.355469 -7.957031 C -11.054688 -6.964844 -11.054688 -5.628906 -11.054688 -5.3125 C -11.054688 -4.363281 -10.828125 -3.121094 -10.152344 -2.375 C -9.382812 -1.515625 -8.34375 -1.445312 -7.957031 -1.445312 C -6.375 -1.445312 -5.628906 -2.578125 -5.269531 -4.25 L -4.996094 -5.515625 C -4.613281 -7.300781 -3.980469 -7.84375 -3.050781 -7.84375 C -2.101562 -7.84375 -0.949219 -7.167969 -0.949219 -5.085938 C -0.949219 -3.074219 -2.328125 -2.261719 -3.074219 -2.078125 Z M -2.621094 -0.769531 "/></g></g></g><g fill="#cc5500" fill-opacity="1"><g transform="translate(23.657154, 1.753592)"><g/></g></g></g></g></svg>